# xmcd
#
# Track frame offsets:
#	150
#	39935
#	46305
#	69317
#	89020
#	102342
#	128275
#	148917
#	165615
#	171962
#	195172
#	208132
#	223095
#	236685
#	258715
#
# Disc length: 3731 seconds
# Revision: 0
# Processed by: cddbd v1.5.2PL0 Copyright (c) Steve Scherf et al.
# Submitted via: dBpowerAMP V12.0
#
DISCID=d90e910f
DTITLE=Various Artist - Salsoul Nation Compiled and Mixed by Luke Howard
DYEAR=2005
DGENRE=Soul
TTITLE0=Salsoul Orchestra - Ooh I Love It (Love Break) (Paris Is Burning Tribute Re-Edit)
TTITLE1=Instant Funk - Got My Mind Made Up (Say What? Edit)
TTITLE2=Skyy - First Time Around (Org. 12" Mix)
TTITLE3=Skyy - High (Org. 12" Mix)
TTITLE4=Inner Life - Moment Of My Life (Org. 12" Mix)
TTITLE5=Logg - I Know You Will (Org. 12" Mix)
TTITLE6=Salsoul Orcherstra Ft. Loleatta Holloway - Seconds (Org. 12' Mix)
TTITLE7=Sharon Bailey - Cosmic Dust (Instr. Mix)
TTITLE8=Paul Maurriat/Loleatta Holloway - Love Is Still Blue (Break Edit)/Dreamin' (Acappella)
TTITLE9=Salsoul Orchestra - Take Some Time Out For Love (Org 12" Mix)
TTITLE10=The Jammers - And You Know That (Body Action Re-Edit)
TTITLE11=Funk Deluxe - This Time (Market Tavern Re-Edit)
TTITLE12=Weeks and Co - If You're Looking For Fun (Org. 12" Mix)
TTITLE13=First Choise - Let No Man Put Asunder (Org. 12" Mix)
TTITLE14=Salsoul Orchestra Ft. Loleatta Holloway - Runaway (Org. 12" Mix)
EXTD=
EXTT0=
EXTT1=
EXTT2=
EXTT3=
EXTT4=
EXTT5=
EXTT6=
EXTT7=
EXTT8=
EXTT9=
EXTT10=
EXTT11=
EXTT12=
EXTT13=
EXTT14=
PLAYORDER=
